<svg xmlns="http://www.w3.org/2000/svg" viewBox="0 0 1920 1080" preserveAspectRatio="xMidYMax slice">
  <defs>
    <radialGradient id="archGlow" cx="50%" cy="100%" r="60%">
      <stop offset="0%" stop-color="#4a8a6a" stop-opacity="0.12"/>
      <stop offset="100%" stop-color="#101a16" stop-opacity="0"/>
    </radialGradient>
    <linearGradient id="pathLight" x1="0%" y1="0%" x2="0%" y2="100%">
      <stop offset="0%" stop-color="#3d7a5a" stop-opacity="0.15"/>
      <stop offset="100%" stop-color="#101a16" stop-opacity="0"/>
    </linearGradient>
  </defs>
  
  <!-- Distant mountains visible through gateway -->
  <polygon points="500,650 750,420 1000,600 1000,1080 500,1080" fill="#1a2a22" opacity="0.5"/>
  <polygon points="850,580 1050,350 1250,560 1400,620 1400,1080 850,1080" fill="#1a2a22" opacity="0.4"/>
  <polygon points="1100,640 1350,450 1600,630 1600,1080 1100,1080" fill="#1a2a22" opacity="0.35"/>
  
  <!-- Center peak - destination -->
  <polygon points="850,680 960,480 1070,680" fill="#1f332d" opacity="0.5"/>
  <polygon points="920,560 960,480 1000,560" fill="#2e4c43" opacity="0.3"/>
  
  <!-- Glow through the gateway -->
  <ellipse cx="960" cy="750" rx="350" ry="450" fill="url(#archGlow)"/>
  
  <!-- Path leading through -->
  <polygon points="880,1080 960,720 1040,1080" fill="url(#pathLight)"/>
  
  <!-- LEFT ARCH PILLAR -->
  <polygon points="0,0 480,0 380,180 320,400 300,600 320,820 400,1080 0,1080" fill="#101a16"/>
  <path d="M380,180 Q420,400 300,600 Q300,800 400,1080" stroke="#2e4c43" stroke-width="2" fill="none" opacity="0.35"/>
  <line x1="320" y1="350" x2="400" y2="340" stroke="#2e4c43" stroke-width="1" opacity="0.25"/>
  <line x1="300" y1="550" x2="370" y2="560" stroke="#2e4c43" stroke-width="1" opacity="0.25"/>
  <line x1="310" y1="750" x2="390" y2="740" stroke="#2e4c43" stroke-width="1" opacity="0.25"/>
  
  <!-- RIGHT ARCH PILLAR -->
  <polygon points="1920,0 1440,0 1540,180 1600,400 1620,600 1600,820 1520,1080 1920,1080" fill="#101a16"/>
  <path d="M1540,180 Q1500,400 1620,600 Q1620,800 1520,1080" stroke="#2e4c43" stroke-width="2" fill="none" opacity="0.35"/>
  <line x1="1600" y1="350" x2="1520" y2="340" stroke="#2e4c43" stroke-width="1" opacity="0.25"/>
  <line x1="1620" y1="550" x2="1550" y2="560" stroke="#2e4c43" stroke-width="1" opacity="0.25"/>
  <line x1="1610" y1="750" x2="1530" y2="740" stroke="#2e4c43" stroke-width="1" opacity="0.25"/>
  
  <!-- ARCH TOP -->
  <path d="M380,180 Q650,40 960,25 Q1270,40 1540,180 L1440,0 L480,0 Z" fill="#101a16"/>
  <path d="M420,160 Q680,50 960,38 Q1240,50 1500,160" stroke="#2e4c43" stroke-width="2" fill="none" opacity="0.4"/>
  
  <!-- 7 gates indicator -->
  <circle cx="520" cy="110" r="3" fill="#4a8a6a" opacity="0.25"/>
  <circle cx="670" cy="65" r="3" fill="#4a8a6a" opacity="0.3"/>
  <circle cx="815" cy="42" r="3" fill="#4a8a6a" opacity="0.35"/>
  <circle cx="960" cy="32" r="4" fill="#5a9a7a" opacity="0.45"/>
  <circle cx="1105" cy="42" r="3" fill="#4a8a6a" opacity="0.35"/>
  <circle cx="1250" cy="65" r="3" fill="#4a8a6a" opacity="0.3"/>
  <circle cx="1400" cy="110" r="3" fill="#4a8a6a" opacity="0.25"/>
</svg>